<svg width="35" height="35" viewBox="0 0 35 35" fill="none" xmlns="http://www.w3.org/2000/svg">
<path d="M11.067 15.0116L16.0206 3.86597C17.0059 3.86597 17.9509 4.25739 18.6476 4.95412C19.3444 5.65086 19.7358 6.59584 19.7358 7.58117V12.5348H26.7452C27.1042 12.5307 27.4598 12.6047 27.7874 12.7518C28.1149 12.8988 28.4066 13.1153 28.6422 13.3862C28.8778 13.6571 29.0517 13.976 29.1518 14.3209C29.2519 14.6657 29.2758 15.0281 29.222 15.3831L27.513 26.5287C27.4234 27.1193 27.1234 27.6576 26.6683 28.0445C26.2131 28.4314 25.6335 28.6407 25.0362 28.634H11.067M11.067 15.0116V28.634M11.067 15.0116H7.3518C6.69491 15.0116 6.06493 15.2725 5.60044 15.737C5.13595 16.2015 4.875 16.8315 4.875 17.4884V26.1572C4.875 26.8141 5.13595 27.444 5.60044 27.9085C6.06493 28.373 6.69491 28.634 7.3518 28.634H11.067" stroke="white" stroke-width="2.83063" stroke-linecap="round" stroke-linejoin="round"/>
</svg>
