<svg width="28" height="28" viewBox="0 0 28 28" fill="none" xmlns="http://www.w3.org/2000/svg">
<path fill-rule="evenodd" clip-rule="evenodd" d="M6.20768 6.99984C5.76219 6.99984 5.24935 7.41875 5.24935 8.13005V14.936L8.32744 10.8179C8.36087 10.7732 8.39747 10.7309 8.43696 10.6914C9.57599 9.55239 11.4227 9.55239 12.5617 10.6914C12.586 10.7157 12.6091 10.741 12.6311 10.7672L16.7973 15.7409L18.062 14.4831L18.0633 14.4817C19.2025 13.3441 21.0482 13.3445 22.1867 14.4831C22.2148 14.5112 22.2415 14.5407 22.2666 14.5715L22.7493 15.1646V8.13005C22.7493 7.41874 22.2365 6.99984 21.791 6.99984H6.20768ZM25.0827 8.13005C25.0827 6.30429 23.6927 4.6665 21.791 4.6665H6.20768C4.30596 4.6665 2.91602 6.30429 2.91602 8.13005V20.9998C2.91602 22.2885 3.96068 23.3332 5.24935 23.3332H22.7493C24.038 23.3332 25.0827 22.2885 25.0827 20.9998V8.13005ZM22.7493 18.8604L20.5047 16.1032C20.2755 15.9057 19.9293 15.9156 19.7119 16.133L19.7096 16.1352L17.5417 18.2915C17.31 18.5219 16.9924 18.6446 16.666 18.6298C16.3396 18.6149 16.0344 18.4639 15.8246 18.2134L10.8842 12.3155C10.6705 12.1274 10.3522 12.1223 10.1327 12.3L5.24935 18.8334V19.8696C5.24935 20.5809 5.76219 20.9998 6.20768 20.9998H21.791C22.2365 20.9998 22.7493 20.5809 22.7493 19.8696V18.8604Z" fill="#52525B"/>
<path d="M17.4993 12.2498C18.4653 12.2498 19.2493 11.4676 19.2493 10.4998C19.2493 9.53384 18.4653 8.74984 17.4993 8.74984C16.5333 8.74984 15.7493 9.53384 15.7493 10.4998C15.7493 11.4676 16.5333 12.2498 17.4993 12.2498Z" fill="#52525B"/>
</svg>
