<svg width="28" height="28" viewBox="0 0 28 28" fill="none" xmlns="http://www.w3.org/2000/svg">
<path fill-rule="evenodd" clip-rule="evenodd" d="M10.4993 5.83317C10.4993 5.18884 11.0217 4.6665 11.666 4.6665H22.166C22.8103 4.6665 23.3327 5.18884 23.3327 5.83317C23.3327 6.4775 22.8103 6.99984 22.166 6.99984H17.7737L12.6696 20.9998H16.3327C16.977 20.9998 17.4993 21.5222 17.4993 22.1665C17.4993 22.8108 16.977 23.3332 16.3327 23.3332H5.83268C5.18835 23.3332 4.66602 22.8108 4.66602 22.1665C4.66602 21.5222 5.18835 20.9998 5.83268 20.9998H10.225L15.3291 6.99984H11.666C11.0217 6.99984 10.4993 6.4775 10.4993 5.83317Z" fill="#52525B"/>
</svg>
