<svg width="755" height="191" viewBox="0 0 755 191" fill="none" xmlns="http://www.w3.org/2000/svg">
<path d="M293 60L299 73L313 79L299 85L293 99L287 85L273 79L287 73L293 60Z" fill="#3C79FF"/>
<path d="M149 0C169.596 0 186.023 7.16388 197.7 18.5957C190.827 20.3598 184.517 22.9823 178.815 26.333C171.201 21.213 161.35 18 149 18H69C51.4422 18 38.9351 24.4949 30.7266 33.7295C22.3709 43.1297 18 55.9177 18 69C18 81.9026 22.7701 94.9314 30.5273 104.628C38.2789 114.317 48.3935 120 59 120H69C73.9706 120 78 124.029 78 129V137.271L92.6357 122.636C94.3236 120.948 96.6131 120 99 120H149C166.558 120 179.065 113.505 187.273 104.271C195.629 94.8703 200 82.0823 200 69C200 63.3758 199.189 57.8067 197.604 52.5371C202.45 50.1609 208.228 48.5669 215.07 48.125C217.032 54.9248 218 61.9876 218 69C218 85.9176 212.371 103.13 200.727 116.229C188.935 129.495 171.442 138 149 138H102.729L75.3643 165.364C72.7903 167.938 68.9187 168.707 65.5557 167.314C62.1928 165.921 60 162.64 60 159V138H59C41.6065 138 26.7211 128.683 16.4727 115.872C6.22993 103.069 0 86.0973 0 69C0 52.0824 5.6292 34.8703 17.2734 21.7705C29.0649 8.5052 46.5579 0 69 0H149Z" fill="#3C79FF"/>
<path d="M289 23C311.442 23 328.935 31.5052 340.727 44.7705C352.371 57.8703 358 75.0824 358 92C358 109.459 350.639 126.504 339.595 139.166C328.59 151.783 313.044 161 296 161H295V182C295 185.64 292.807 188.921 289.444 190.314C286.081 191.707 282.21 190.938 279.636 188.364L252.271 161H219C198.404 161 181.977 153.836 170.299 142.403C177.172 140.639 183.482 138.017 189.184 134.666C196.798 139.786 206.649 143 219 143H256C258.387 143 260.676 143.948 262.364 145.636L277 160.271V152C277 147.029 281.029 143 286 143H296C306.456 143 317.411 137.217 326.03 127.334C334.611 117.496 340 104.541 340 92C340 78.9177 335.629 66.1297 327.273 56.7295C319.065 47.4949 306.558 41 289 41H219C201.442 41 188.935 47.4949 180.727 56.7295C172.371 66.1297 168 78.9177 168 92C168 97.6238 168.81 103.193 170.395 108.462C165.549 110.838 159.771 112.432 152.929 112.874C150.967 106.075 150 99.012 150 92C150 75.0824 155.629 57.8703 167.273 44.7705C179.065 31.5052 196.558 23 219 23H289Z" fill="#3C79FF"/>
<path d="M396.156 130V62.125H410.219V118.375H439.469V130H396.156ZM462.625 62.125V130H448.562V62.125H462.625ZM530.688 62.125V130H518.5L488.688 86.875H488.125V130H474.062V62.125H486.438L516.062 105.25H516.719V62.125H530.688ZM542.125 130V62.125H556.188V92.2188H557.125L581.781 62.125H598.75L573.438 92.5L599.031 130H582.156L563.312 101.969L556.188 110.594V130H542.125ZM613.656 121.75C609.25 121.75 605.688 118.188 605.781 113.875C605.688 109.562 609.25 106.094 613.656 106.094C617.781 106.094 621.438 109.562 621.438 113.875C621.438 118.188 617.781 121.75 613.656 121.75ZM613.656 86.0312C609.25 86.0312 605.688 82.4688 605.781 78.1562C605.688 73.8438 609.25 70.375 613.656 70.375C617.781 70.375 621.438 73.8438 621.438 78.1562C621.438 82.4688 617.781 86.0312 613.656 86.0312ZM674.875 62.125H689.031V106.188C689.031 121.094 677.781 130.938 660.906 130.938C644.031 130.938 632.875 121.094 632.875 106.188V62.125H646.938V105.062C646.938 112.844 652.469 118.562 660.906 118.562C669.438 118.562 674.875 112.844 674.875 105.062V62.125ZM700.469 130V62.125H727.094C742.562 62.125 751.375 71.5938 751.375 85C751.375 98.5938 742.375 107.875 726.719 107.875H714.531V130H700.469ZM714.531 96.5312H724.469C732.812 96.5312 736.844 91.8438 736.844 85C736.844 78.25 732.812 73.6562 724.469 73.6562H714.531V96.5312Z" fill="#3C79FF"/>
</svg>
