<svg width="15" height="15" viewBox="0 0 15 15" fill="none" xmlns="http://www.w3.org/2000/svg">
<path d="M3.99935 6.6665L6.66602 0.666504C7.19645 0.666504 7.70516 0.877218 8.08023 1.25229C8.4553 1.62736 8.66602 2.13607 8.66602 2.6665V5.33317H12.4393C12.6326 5.33098 12.8241 5.37084 13.0004 5.44998C13.1767 5.52913 13.3338 5.64566 13.4606 5.79151C13.5874 5.93737 13.681 6.10905 13.7349 6.29467C13.7888 6.48029 13.8017 6.67541 13.7727 6.8665L12.8527 12.8665C12.8045 13.1844 12.643 13.4742 12.398 13.6825C12.1529 13.8908 11.8409 14.0035 11.5193 13.9998H3.99935M3.99935 6.6665V13.9998M3.99935 6.6665H1.99935C1.64573 6.6665 1.30659 6.80698 1.05654 7.05703C0.806491 7.30708 0.666016 7.64622 0.666016 7.99984V12.6665C0.666016 13.0201 0.806491 13.3593 1.05654 13.6093C1.30659 13.8594 1.64573 13.9998 1.99935 13.9998H3.99935" stroke="#ADADAD" stroke-width="1.33333" stroke-linecap="round" stroke-linejoin="round"/>
</svg>
